<svg xmlns="http://www.w3.org/2000/svg" width="769" height="250" viewBox="0 0 769 250" fill="none"><rect width="769" height="250" fill="#1E1E1E"></rect><g clip-path="url(#clip0_0_1)"><rect width="769" height="250" fill="white"></rect><rect width="769" height="316" fill="#283618"></rect><path d="M480.613 102.968C457.848 86.2709 500.125 33.6094 513.133 64.4357C526.141 95.2619 522.889 49.0226 549.556 31.0407C576.223 13.0587 589.881 20.7652 568.418 64.4357C546.954 108.106 482.564 61.8668 513.133 102.968C543.702 144.07 486.466 172.328 533.946 205.723C581.426 239.118 472.157 246.824 498.174 182.603C524.19 118.382 503.377 119.666 480.613 102.968Z" fill="#DDA15E"></path></g><path d="M701.529 36.1762C671.837 14.212 718.482 1 718.482 1H738.428C738.428 1 696.543 41.3143 725.463 28.2714C754.384 15.2286 773.332 68.981 754.384 57.1238C735.436 45.2667 664.132 51.5905 733.441 109.295C802.751 167 708.51 107.714 742.417 147.238C776.323 186.762 654.159 170.952 689.562 186.762C724.965 202.571 635.71 249.21 678.093 242.49C720.477 235.771 742.417 250 742.417 250H594.822C594.822 250 582.855 216.405 620.253 228.657C657.65 240.91 710.006 197.433 650.17 210.476C590.335 223.519 685.745 185.971 656.824 155.933C627.904 125.895 628.729 103.762 689.562 134.195C750.395 164.629 706.515 111.667 678.093 86.7667C649.672 61.8667 731.221 58.1403 701.529 36.1762Z" fill="#DDA15E"></path><path d="M351.263 249.994C351.263 249.994 331.949 220.788 351.263 206.641C370.576 192.494 318.671 159.181 351.263 168.764C383.854 178.347 348.997 103.291 327.27 86.8628C305.542 70.4342 313.631 50.0152 291.3 55.4914C268.969 60.9676 302.049 13.0902 334.264 55.4914C366.479 97.8926 351.263 -22.1529 369.973 20.1986C388.683 62.55 419.563 58.6286 369.973 76.6671C320.382 94.7057 427.45 116.666 383.854 155.88C340.259 195.094 420.451 203.52 393.214 227.25C369.111 248.249 380.337 249.894 383.24 249.994H383.854C383.854 249.994 383.618 250.007 383.24 249.994H351.263Z" fill="#DDA15E"></path><path d="M70.4032 55.3833C91.5668 37.7248 64.3565 0 64.3565 0H111.723C111.723 0 122.305 18.8624 106.18 18.0598C90.0551 17.2571 71.411 40.1328 91.5668 55.3833C111.723 70.6338 85.0162 64.2125 96.6058 80.6669C108.195 97.1214 95.5206 90.2989 91.5668 110.767C87.613 131.234 159.089 137.254 111.723 152.906C64.3563 168.558 93.5825 180.598 78.9695 184.611C64.3564 188.624 87.5357 227.954 70.4032 217.119C53.2706 206.283 46.7201 180.598 70.4032 168.157C94.0862 155.715 83.0006 125.616 70.4032 117.99C57.8058 110.365 49.2395 73.0417 70.4032 55.3833Z" fill="#DDA15E"></path><path d="M211.007 68.1283C194.104 93.4714 194.472 140.601 211.007 123.261C227.542 105.921 220.193 114.813 223.867 132.598C227.542 150.382 214.681 133.931 211.007 145.936C207.332 157.941 222.03 152.605 227.542 171.724C233.054 190.842 259.143 222.41 223.867 200.624C188.592 178.838 197.411 210.85 199.616 171.724C201.821 132.598 189.327 127.707 180.508 108.588C171.69 89.4699 191.532 113.924 195.574 84.5791C199.616 55.2345 167.28 17.4422 178.304 15.2191C189.327 12.996 206.23 28.1129 204.025 41.4514C201.82 54.7899 227.909 42.7853 211.007 68.1283Z" fill="#DDA15E"></path><defs><clipPath id="clip0_0_1"><rect width="769" height="250" fill="white"></rect></clipPath></defs></svg>